REM DIRINDEX 1\2,1\3,1\4,1\5,1\6,1\7,1\8
REM DIRNAME cjc152,folder01,folder02,folder03,folder04,folder05,folder06,folder07
TITLE ""
FILE "38_Ch8_FavoriteThingstoDo_Tweets.mp3" MP3
  TRACK 01 AUDIO
    TITLE "0:"
    INDEX 01 00:00:00
  TRACK 02 AUDIO
    TITLE "8:cjc152_2087"
    INDEX 01 00:00:09
  TRACK 03 AUDIO
    TITLE "0:"
    INDEX 01 00:03:19
  TRACK 04 AUDIO
    TITLE "8:cjc152_2088"
    INDEX 01 00:03:68
  TRACK 05 AUDIO
    TITLE "0:"
    INDEX 01 00:05:30
  TRACK 06 AUDIO
    TITLE "4:cjc152_2089"
    INDEX 01 00:06:24
  TRACK 07 AUDIO
    TITLE "0:"
    INDEX 01 00:09:47
  TRACK 08 AUDIO
    TITLE "4:cjc152_2090"
    INDEX 01 00:10:41
  TRACK 09 AUDIO
    TITLE "0:"
    INDEX 01 00:13:71
  TRACK 10 AUDIO
    TITLE "4:cjc152_2091"
    INDEX 01 00:15:64
  TRACK 11 AUDIO
    TITLE "0:"
    INDEX 01 00:19:20
  TRACK 12 AUDIO
    TITLE "4:cjc152_2092"
    INDEX 01 00:20:16
  TRACK 13 AUDIO
    TITLE "0:"
    INDEX 01 00:22:44
  TRACK 14 AUDIO
    TITLE "4:cjc152_2093"
    INDEX 01 00:24:37
  TRACK 15 AUDIO
    TITLE "0:"
    INDEX 01 00:27:69
  TRACK 16 AUDIO
    TITLE "4:cjc152_2094"
    INDEX 01 00:28:60
  TRACK 17 AUDIO
    TITLE "0:"
    INDEX 01 00:33:09
  TRACK 18 AUDIO
    TITLE "4:cjc152_2095"
    INDEX 01 00:35:00
  TRACK 19 AUDIO
    TITLE "0:"
    INDEX 01 00:39:25
  TRACK 20 AUDIO
    TITLE "4:cjc152_2096"
    INDEX 01 00:40:21
  TRACK 21 AUDIO
    TITLE "0:"
    INDEX 01 00:43:50
  TRACK 22 AUDIO
    TITLE "4:cjc152_2097"
    INDEX 01 00:45:73
  TRACK 23 AUDIO
    TITLE "0:"
    INDEX 01 00:50:52
  TRACK 24 AUDIO
    TITLE "4:cjc152_2098"
    INDEX 01 00:51:42
  TRACK 25 AUDIO
    TITLE "0:"
    INDEX 01 00:56:06
  TRACK 26 AUDIO
    TITLE "4:cjc152_2099"
    INDEX 01 00:57:74
  TRACK 27 AUDIO
    TITLE "0:"
    INDEX 01 01:00:68
  TRACK 28 AUDIO
    TITLE "4:cjc152_2100"
    INDEX 01 01:01:60
  TRACK 29 AUDIO
    TITLE "0:"
    INDEX 01 01:05:30
  TRACK 30 AUDIO
    TITLE "4:cjc152_2101"
    INDEX 01 01:07:23
  TRACK 31 AUDIO
    TITLE "0:"
    INDEX 01 01:10:69
  TRACK 32 AUDIO
    TITLE "4:cjc152_2102"
    INDEX 01 01:11:60
  TRACK 33 AUDIO
    TITLE "0:"
    INDEX 01 01:16:26
  TRACK 34 AUDIO
    TITLE "4:cjc152_2103"
    INDEX 01 01:18:17
  TRACK 35 AUDIO
    TITLE "0:"
    INDEX 01 01:21:20
  TRACK 36 AUDIO
    TITLE "4:cjc152_2104"
    INDEX 01 01:22:09
  TRACK 37 AUDIO
    TITLE "0:"
    INDEX 01 01:26:13
  TRACK 38 AUDIO
    TITLE "4:cjc152_2105"
    INDEX 01 01:28:06
  TRACK 39 AUDIO
    TITLE "0:"
    INDEX 01 01:31:41
  TRACK 40 AUDIO
    TITLE "4:cjc152_2106"
    INDEX 01 01:32:35
  TRACK 41 AUDIO
    TITLE "0:"
    INDEX 01 01:36:47
  TRACK 42 AUDIO
    TITLE "4:cjc152_2107"
    INDEX 01 01:38:40
  TRACK 43 AUDIO
    TITLE "0:"
    INDEX 01 01:41:56
  TRACK 44 AUDIO
    TITLE "4:cjc152_2108"
    INDEX 01 01:42:49
  TRACK 45 AUDIO
    TITLE "0:"
    INDEX 01 01:45:65
  TRACK 46 AUDIO
    TITLE "4:cjc152_2109"
    INDEX 01 01:47:58
  TRACK 47 AUDIO
    TITLE "0:"
    INDEX 01 01:49:49
  TRACK 48 AUDIO
    TITLE "4:cjc152_2110"
    INDEX 01 01:50:41
  TRACK 49 AUDIO
    TITLE "0:"
    INDEX 01 01:53:06
  TRACK 50 AUDIO
    TITLE "4:cjc152_2111"
    INDEX 01 01:54:72
  TRACK 51 AUDIO
    TITLE "0:"
    INDEX 01 01:58:29
  TRACK 52 AUDIO
    TITLE "4:cjc152_2112"
    INDEX 01 01:59:20
  TRACK 53 AUDIO
    TITLE "0:"
    INDEX 01 02:01:45
  TRACK 54 AUDIO
    TITLE "4:cjc152_2113"
    INDEX 01 02:03:38
  TRACK 55 AUDIO
    TITLE "0:"
    INDEX 01 02:07:10
  TRACK 56 AUDIO
    TITLE "4:cjc152_2114"
    INDEX 01 02:08:03
  TRACK 57 AUDIO
    TITLE "0:"
    INDEX 01 02:11:72
  TRACK 58 AUDIO
    TITLE "4:cjc152_2115"
    INDEX 01 02:13:65
  TRACK 59 AUDIO
    TITLE "0:"
    INDEX 01 02:17:49
  TRACK 60 AUDIO
    TITLE "4:cjc152_2116"
    INDEX 01 02:18:43
  TRACK 61 AUDIO
    TITLE "0:"
    INDEX 01 02:22:33
  TRACK 62 AUDIO
    TITLE "4:cjc152_2117"
    INDEX 01 02:24:26
  TRACK 63 AUDIO
    TITLE "0:"
    INDEX 01 02:26:66
  TRACK 64 AUDIO
    TITLE "4:cjc152_2118"
    INDEX 01 02:27:60
  TRACK 65 AUDIO
    TITLE "0:"
    INDEX 01 02:30:64
  TRACK 66 AUDIO
    TITLE "4:cjc152_2119"
    INDEX 01 02:32:71
  TRACK 67 AUDIO
    TITLE "0:"
    INDEX 01 02:36:29
  TRACK 68 AUDIO
    TITLE "4:cjc152_2120"
    INDEX 01 02:37:23
  TRACK 69 AUDIO
    TITLE "0:"
    INDEX 01 02:41:21
  TRACK 70 AUDIO
    TITLE "4:cjc152_2121"
    INDEX 01 02:43:14
  TRACK 71 AUDIO
    TITLE "0:"
    INDEX 01 02:48:15
  TRACK 72 AUDIO
    TITLE "4:cjc152_2122"
    INDEX 01 02:49:06
  TRACK 73 AUDIO
    TITLE "0:"
    INDEX 01 02:54:43
  TRACK 74 AUDIO
    TITLE "4:cjc152_2123"
    INDEX 01 02:56:36
  TRACK 75 AUDIO
    TITLE "0:"
    INDEX 01 02:59:18
  TRACK 76 AUDIO
    TITLE "4:cjc152_2124"
    INDEX 01 03:00:12
  TRACK 77 AUDIO
    TITLE "0:"
    INDEX 01 03:04:08
  TRACK 78 AUDIO
    TITLE "4:cjc152_2125"
    INDEX 01 03:05:74
  TRACK 79 AUDIO
    TITLE "0:"
    INDEX 01 03:08:02
  TRACK 80 AUDIO
    TITLE "4:cjc152_2126"
    INDEX 01 03:08:70
  TRACK 81 AUDIO
    TITLE "0:"
    INDEX 01 03:11:61
  TRACK 82 AUDIO
    TITLE "4:cjc152_2127"
    INDEX 01 03:13:52
  TRACK 83 AUDIO
    TITLE "0:"
    INDEX 01 03:16:72
  TRACK 84 AUDIO
    TITLE "4:cjc152_2128"
    INDEX 01 03:17:65
  TRACK 85 AUDIO
    TITLE "0:"
    INDEX 01 03:21:10
  TRACK 86 AUDIO
    TITLE "4:cjc152_2129"
    INDEX 01 03:23:03
  TRACK 87 AUDIO
    TITLE "0:"
    INDEX 01 03:25:22
  TRACK 88 AUDIO
    TITLE "4:cjc152_2130"
    INDEX 01 03:26:13
  TRACK 89 AUDIO
    TITLE "0:"
    INDEX 01 03:29:04
  TRACK 90 AUDIO
    TITLE "4:cjc152_2131"
    INDEX 01 03:30:72
  TRACK 91 AUDIO
    TITLE "0:"
    INDEX 01 03:34:17
  TRACK 92 AUDIO
    TITLE "4:cjc152_2132"
    INDEX 01 03:35:08
  TRACK 93 AUDIO
    TITLE "0:"
    INDEX 01 03:38:32
  TRACK 94 AUDIO
    TITLE "4:cjc152_2133"
    INDEX 01 03:40:25
  TRACK 95 AUDIO
    TITLE "0:"
    INDEX 01 03:42:59
  TRACK 96 AUDIO
    TITLE "4:cjc152_2134"
    INDEX 01 03:43:51
  TRACK 97 AUDIO
    TITLE "0:"
    INDEX 01 03:46:61
  TRACK 98 AUDIO
    TITLE "4:cjc152_2135"
    INDEX 01 03:48:54
  TRACK 99 AUDIO
    TITLE "0:"
    INDEX 01 03:52:05
  TRACK 100 AUDIO
    TITLE "4:cjc152_2136"
    INDEX 01 03:52:72
  TRACK 101 AUDIO
    TITLE "0:"
    INDEX 01 03:55:40
  TRACK 102 AUDIO
    TITLE "4:cjc152_2137"
    INDEX 01 03:57:33
  TRACK 103 AUDIO
    TITLE "0:"
    INDEX 01 04:01:23
  TRACK 104 AUDIO
    TITLE "4:cjc152_2138"
    INDEX 01 04:02:15
  TRACK 105 AUDIO
    TITLE "0:"
    INDEX 01 04:05:43
  TRACK 106 AUDIO
    TITLE "4:cjc152_2139"
    INDEX 01 04:07:34
  TRACK 107 AUDIO
    TITLE "0:"
    INDEX 01 04:10:50
  TRACK 108 AUDIO
    TITLE "4:cjc152_2140"
    INDEX 01 04:11:41
  TRACK 109 AUDIO
    TITLE "0:"
    INDEX 01 04:15:41
  TRACK 110 AUDIO
    TITLE "4:cjc152_2141"
    INDEX 01 04:17:32
  TRACK 111 AUDIO
    TITLE "0:"
    INDEX 01 04:21:10
  TRACK 112 AUDIO
    TITLE "4:cjc152_2142"
    INDEX 01 04:22:02
  TRACK 113 AUDIO
    TITLE "0:"
    INDEX 01 04:26:39
  TRACK 114 AUDIO
    TITLE "4:cjc152_2143"
    INDEX 01 04:28:32
  TRACK 115 AUDIO
    TITLE "0:"
    INDEX 01 04:31:58
  TRACK 116 AUDIO
    TITLE "4:cjc152_2144"
    INDEX 01 04:32:49
  TRACK 117 AUDIO
    TITLE "0:"
    INDEX 01 04:35:73
  TRACK 118 AUDIO
    TITLE "4:cjc152_2145"
    INDEX 01 04:37:62
  TRACK 119 AUDIO
    TITLE "0:"
    INDEX 01 04:40:69
  TRACK 120 AUDIO
    TITLE "4:cjc152_2146"
    INDEX 01 04:41:58
  TRACK 121 AUDIO
    TITLE "0:"
    INDEX 01 04:45:46
  TRACK 122 AUDIO
    TITLE "4:cjc152_2147"
    INDEX 01 04:47:39
  TRACK 123 AUDIO
    TITLE "0:"
    INDEX 01 04:50:47
  TRACK 124 AUDIO
    TITLE "4:cjc152_2148"
    INDEX 01 04:51:37
  TRACK 125 AUDIO
    TITLE "0:"
    INDEX 01 04:54:22
  TRACK 126 AUDIO
    TITLE "4:cjc152_2149"
    INDEX 01 04:56:32
  TRACK 127 AUDIO
    TITLE "0:"
    INDEX 01 05:00:01
  TRACK 128 AUDIO
    TITLE "4:cjc152_2150"
    INDEX 01 05:00:69
  TRACK 129 AUDIO
    TITLE "0:"
    INDEX 01 05:04:63
  TRACK 130 AUDIO
    TITLE "4:cjc152_2151"
    INDEX 01 05:06:56
  TRACK 131 AUDIO
    TITLE "0:"
    INDEX 01 05:09:41
  TRACK 132 AUDIO
    TITLE "4:cjc152_2152"
    INDEX 01 05:10:34
  TRACK 133 AUDIO
    TITLE "0:"
    INDEX 01 05:13:54
  TRACK 134 AUDIO
    TITLE "4:cjc152_2153"
    INDEX 01 05:15:43
  TRACK 135 AUDIO
    TITLE "0:"
    INDEX 01 05:19:43
  TRACK 136 AUDIO
    TITLE "4:cjc152_2154"
    INDEX 01 05:20:35
  TRACK 137 AUDIO
    TITLE "0:"
    INDEX 01 05:24:64
  TRACK 138 AUDIO
    TITLE "4:cjc152_2155"
    INDEX 01 05:26:59
  TRACK 139 AUDIO
    TITLE "0:"
    INDEX 01 05:31:03
  TRACK 140 AUDIO
    TITLE "4:cjc152_2156"
    INDEX 01 05:31:72
  TRACK 141 AUDIO
    TITLE "0:"
    INDEX 01 05:36:48
  TRACK 142 AUDIO
    TITLE "4:cjc152_2157"
    INDEX 01 05:38:39
  TRACK 143 AUDIO
    TITLE "0:"
    INDEX 01 05:42:25
  TRACK 144 AUDIO
    TITLE "4:cjc152_2158"
    INDEX 01 05:43:16
  TRACK 145 AUDIO
    TITLE "0:"
    INDEX 01 05:48:15
  TRACK 146 AUDIO
    TITLE "4:cjc152_2159"
    INDEX 01 05:50:30
  TRACK 147 AUDIO
    TITLE "0:"
    INDEX 01 05:56:68
  TRACK 148 AUDIO
    TITLE "4:cjc152_2160"
    INDEX 01 05:57:57
  TRACK 149 AUDIO
    TITLE "0:"
    INDEX 01 06:05:26
  TRACK 150 AUDIO
    TITLE "4:cjc152_2161"
    INDEX 01 06:07:19
  TRACK 151 AUDIO
    TITLE "0:"
    INDEX 01 06:09:33
  TRACK 152 AUDIO
    TITLE "4:cjc152_2162"
    INDEX 01 06:10:41
  TRACK 153 AUDIO
    TITLE "0:"
    INDEX 01 06:12:71
  TRACK 154 AUDIO
    TITLE "4:cjc152_2163"
    INDEX 01 06:14:64
  TRACK 155 AUDIO
    TITLE "0:"
    INDEX 01 06:19:55
  TRACK 156 AUDIO
    TITLE "4:cjc152_2164"
    INDEX 01 06:20:59
  TRACK 157 AUDIO
    TITLE "0:"
    INDEX 01 06:24:58
  TRACK 158 AUDIO
    TITLE "4:cjc152_2165"
    INDEX 01 06:26:51
  TRACK 159 AUDIO
    TITLE "0:"
    INDEX 01 06:30:71
  TRACK 160 AUDIO
    TITLE "4:cjc152_2166"
    INDEX 01 06:31:60
  TRACK 161 AUDIO
    TITLE "0:"
    INDEX 01 06:35:52
  TRACK 162 AUDIO
    TITLE "4:cjc152_2167"
    INDEX 01 06:37:67
  TRACK 163 AUDIO
    TITLE "0:"
    INDEX 01 06:42:54
  TRACK 164 AUDIO
    TITLE "4:cjc152_2168"
    INDEX 01 06:43:46
  TRACK 165 AUDIO
    TITLE "0:"
    INDEX 01 06:49:01
  TRACK 166 AUDIO
    TITLE "4:cjc152_2169"
    INDEX 01 06:50:69
  TRACK 167 AUDIO
    TITLE "0:"
    INDEX 01 06:54:26
  TRACK 168 AUDIO
    TITLE "4:cjc152_2170"
    INDEX 01 06:55:20
  TRACK 169 AUDIO
    TITLE "0:"
    INDEX 01 06:58:61
  TRACK 170 AUDIO
    TITLE "4:cjc152_2171"
    INDEX 01 07:00:52
  TRACK 171 AUDIO
    TITLE "0:"
    INDEX 01 07:07:11
  TRACK 172 AUDIO
    TITLE "4:cjc152_2172"
    INDEX 01 07:08:11
  TRACK 173 AUDIO
    TITLE "0:"
    INDEX 01 07:14:27
